<?xml version="1.0" encoding="UTF-8" standalone="no"?>
<!-- Created with Inkscape (http://www.inkscape.org/) -->

<svg
   width="102.87785mm"
   height="86.227684mm"
   viewBox="0 0 102.87785 86.227684"
   version="1.1"
   id="svg1"
   xml:space="preserve"
   inkscape:version="1.3 (0e150ed6c4, 2023-07-21)"
   sodipodi:docname="truffleyard.svg"
   inkscape:export-filename="truffleyard.png"
   inkscape:export-xdpi="96"
   inkscape:export-ydpi="96"
   xmlns:inkscape="http://www.inkscape.org/namespaces/inkscape"
   xmlns:sodipodi="http://sodipodi.sourceforge.net/DTD/sodipodi-0.dtd"
   xmlns="http://www.w3.org/2000/svg"
   xmlns:svg="http://www.w3.org/2000/svg"><sodipodi:namedview
     id="namedview1"
     pagecolor="#ffffff"
     bordercolor="#000000"
     borderopacity="0.25"
     inkscape:showpageshadow="2"
     inkscape:pageopacity="0.0"
     inkscape:pagecheckerboard="0"
     inkscape:deskcolor="#d1d1d1"
     inkscape:document-units="mm"
     inkscape:zoom="1.0761504"
     inkscape:cx="-172.83829"
     inkscape:cy="32.523335"
     inkscape:window-width="2560"
     inkscape:window-height="1412"
     inkscape:window-x="1920"
     inkscape:window-y="0"
     inkscape:window-maximized="1"
     inkscape:current-layer="layer1" /><defs
     id="defs1"><rect
       x="247.7813"
       y="281.35764"
       width="44.549419"
       height="13.01001"
       id="rect1" /><rect
       x="212.98134"
       y="353.1105"
       width="661.24597"
       height="131.58009"
       id="rect9" /></defs><g
     inkscape:label="Layer 1"
     inkscape:groupmode="layer"
     id="layer1"
     transform="translate(-91.495647,-14.520847)"><g
       id="g5"
       transform="matrix(0.22384539,0,0,0.22384539,-172.36061,-339.18155)">&#10;	<polygon
   class="st0"
   points="2257.1169,453.13855 2163.6689,506.7554 1657.5271,214.46765 1151.0767,506.7554 1057.9373,453.13855 965.40924,399.5217 1657.5271,0.0002422 2349.6431,399.5217 "
   id="polygon1"
   transform="matrix(0.06954407,0,0,0.06954407,1303.533,1601.2075)" />&#10;	<path
   class="st0"
   d="m 1534.0753,1667.7707 -25.6323,-14.8084 v 14.915 l 12.7202,7.3296 v 118.2115 l -25.5471,14.7232 -6.4561,3.7501 -6.4346,3.7287 -63.9212,36.9038 -63.9211,-36.9038 -6.4561,-3.7287 -6.456,-3.7501 -25.5259,-14.7232 v -118.2115 l 12.7203,-7.3296 v -14.915 l -25.6324,14.8084 v 133.1051 l 25.526,14.7446 -25.526,14.7231 115.2712,66.5632 115.2711,-66.5632 -25.5471,-14.7231 25.5471,-14.7446 z m -115.2711,214.2211 -89.447,-51.6483 12.6138,-7.287 76.8332,44.3613 76.8119,-44.3613 12.6351,7.287 z"
   id="path1"
   style="stroke-width:0.069544" />&#10;	<path
   class="st0"
   d="m 1494.2049,1675.2709 v -47.8557 l -29.7872,17.1735 -11.6762,6.7329 -12.8269,-7.4574 0.043,-0.021 -22.3937,-12.9334 -22.3937,12.9334 0.043,0.021 -12.8482,7.4574 -11.6763,-6.7329 -29.766,-17.1735 v 47.8557 l -12.912,7.4574 v 103.2966 l 25.5259,14.7444 12.912,7.4361 51.1156,29.5104 51.0943,-29.5104 12.9121,-7.4361 25.5258,-14.7444 v -103.2966 z m -140.3708,-25.5259 10.4191,6.0299 5.0925,2.9404 7.2656,4.1974 11.2075,6.4347 -22.7772,13.1678 -11.2075,6.4774 z m 127.4587,136.2586 -12.635,7.2869 -12.8907,7.4788 -38.2036,22.0529 -38.2035,-22.0529 -12.9121,-7.4788 -12.6138,-7.2869 v -38.5444 l 9.716,-3.1109 15.8737,4.2614 14.3823,3.8779 -0.831,-3.1109 -1.6619,-6.2216 -0.2557,-0.9802 -1.2358,-4.6236 h 55.4835 l -1.2357,4.6236 -0.2557,0.9802 -1.662,6.2216 h -0.022 l -0.8309,3.1109 14.3823,-3.8779 15.8523,-4.2401 h 0.021 l 9.7373,3.0896 z m 0,-97.011 -11.2075,-6.4774 -22.7772,-13.1678 11.2075,-6.4347 7.2445,-4.1974 5.1136,-2.9404 10.4191,-6.0299 z"
   id="path2"
   style="fill:#233f94;fill-opacity:1;stroke-width:0.069544" />&#10;	<g
   id="g3"
   transform="matrix(0.06954407,0,0,0.06954407,1303.533,1601.2075)">&#10;		<path
   class="st0"
   d="m 1919.0377,2253.6438 -135.3397,-40.5259 -1.41,-0.4338 -124.8293,-37.3833 -124.8292,37.3833 -1.4073,0.4338 -135.3396,40.5259 -166.1145,49.7375 30.0155,170.7732 23.1876,132.6307 19.5077,111.3928 106.4061,38.3581 113.5595,40.9597 8.7777,3.1417 126.2365,45.6198 126.2393,-45.6198 8.775,-3.1417 113.5596,-40.9597 106.4088,-38.3581 19.505,-111.3928 23.1903,-132.6307 30.0154,-170.7732 z m 29.3648,201.8733 -23.1902,132.5222 -8.6666,49.5193 -47.2455,17.0117 -85.6022,30.9917 -27.9573,10.0767 -69.5653,25.0315 -10.8359,3.8994 -17.8808,6.5024 -17.878,-6.5024 -10.8358,-3.8994 -69.5653,-25.0315 -27.9574,-10.0767 -85.6022,-30.9917 -47.2455,-17.0117 -8.6692,-49.5193 -23.1875,-132.5222 -13.3279,-75.9595 73.7901,-22.1055 104.2422,-31.2087 32.5075,-9.7512 65.0152,-19.3965 10.8358,-3.2512 17.878,-5.418 17.8808,5.418 10.8359,3.2512 65.015,19.3965 32.5076,9.7512 104.2395,31.2087 73.7928,22.1055 z"
   id="path3" />&#10;	</g>&#10;	<g
   id="g4"
   transform="matrix(0.06954407,0,0,0.06954407,1303.533,1601.2075)">&#10;		<polygon
   class="st0"
   points="1531.2222,2416.7239 1588.6527,2399.4939 1588.6527,2614.0444 1531.2222,2593.3489 1475.0933,2573.0845 1451.903,2440.4539 "
   id="polygon3" />&#10;		<polygon
   class="st0"
   points="1783.698,2416.7239 1863.0172,2440.4539 1839.827,2573.0845 1783.698,2593.3489 1726.2675,2614.0444 1726.2675,2399.4939 "
   id="polygon4" />&#10;	</g>&#10;</g><g
       inkscape:groupmode="layer"
       id="layer3"
       inkscape:label="Layer 2" /><path
       id="path9"
       style="fill:#233f94;fill-opacity:1;stroke-width:0.105656"
       d="m 104.08451,50.659376 a 10.279356,10.279356 0 0 0 -1.38809,14.470497 10.279356,10.279356 0 0 0 13.52233,2.063232 l 10.45323,12.671477 1.79149,-1.477868 -10.45322,-12.671472 a 10.279356,10.279356 0 0 0 0.54499,-13.66797 10.279356,10.279356 0 0 0 -14.47073,-1.387896 z m 0.93711,1.135977 2.4e-4,-1.92e-4 a 8.8066672,8.8066672 0 0 1 0.3398,-0.266651 8.8066672,8.8066672 0 0 1 0.35297,-0.249764 8.8066672,8.8066672 0 0 1 0.36475,-0.232152 8.8066672,8.8066672 0 0 1 0.37543,-0.214002 8.8066672,8.8066672 0 0 1 0.38541,-0.195278 8.8066672,8.8066672 0 0 1 0.39472,-0.176404 8.8066672,8.8066672 0 0 1 0.40308,-0.156338 8.8066672,8.8066672 0 0 1 0.40996,-0.136627 8.8066672,8.8066672 0 0 1 0.41639,-0.116533 8.8066672,8.8066672 0 0 1 0.42144,-0.09571 8.8066672,8.8066672 0 0 1 0.42567,-0.07498 8.8066672,8.8066672 0 0 1 0.42881,-0.05412 8.8066672,8.8066672 0 0 1 0.43106,-0.03294 8.8066672,8.8066672 0 0 1 0.43199,-0.01143 8.8066672,8.8066672 0 0 1 0.43235,0.0094 8.8066672,8.8066672 0 0 1 0.43115,0.03065 8.8066672,8.8066672 0 0 1 0.42912,0.05186 8.8066672,8.8066672 0 0 1 0.42606,0.07276 8.8066672,8.8066672 0 0 1 0.42189,0.09379 8.8066672,8.8066672 0 0 1 0.41693,0.114277 8.8066672,8.8066672 0 0 1 0.41093,0.134469 8.8066672,8.8066672 0 0 1 0.40367,0.154502 8.8066672,8.8066672 0 0 1 0.39556,0.174079 8.8066672,8.8066672 0 0 1 0.38664,0.193561 8.8066672,8.8066672 0 0 1 0.37675,0.211881 8.8066672,8.8066672 0 0 1 0.36577,0.230306 8.8066672,8.8066672 0 0 1 0.35399,0.248225 8.8066672,8.8066672 0 0 1 0.34128,0.264987 8.8066672,8.8066672 0 0 1 0.32789,0.281468 8.8066672,8.8066672 0 0 1 0.31396,0.297256 8.8066672,8.8066672 0 0 1 0.29886,0.312075 8.8066672,8.8066672 0 0 1 0.28313,0.326621 8.8066672,8.8066672 0 0 1 0.72843,1.024131 8.8066672,8.8066672 0 0 1 0.57545,1.117124 8.8066672,8.8066672 0 0 1 0.41033,1.187334 8.8066672,8.8066672 0 0 1 0.23717,1.234086 8.8066672,8.8066672 0 0 1 0.0591,1.25511 8.8066672,8.8066672 0 0 1 -0.11976,1.250794 8.8066672,8.8066672 0 0 1 -0.29701,1.220717 8.8066672,8.8066672 0 0 1 -0.46738,1.166509 8.8066672,8.8066672 0 0 1 -0.6288,1.087871 8.8066672,8.8066672 0 0 1 -0.77713,0.987595 8.8066672,8.8066672 0 0 1 -0.90958,0.866356 8.8066672,8.8066672 0 0 1 -1.02392,0.728676 8.8066672,8.8066672 0 0 1 -1.11734,0.575225 8.8066672,8.8066672 0 0 1 -1.18733,0.410321 8.8066672,8.8066672 0 0 1 -1.23407,0.237169 8.8066672,8.8066672 0 0 1 -1.25517,0.05962 8.8066672,8.8066672 0 0 1 -1.25073,-0.120191 8.8066672,8.8066672 0 0 1 -1.22096,-0.296747 8.8066672,8.8066672 0 0 1 -1.16627,-0.467634 8.8066672,8.8066672 0 0 1 -1.08767,-0.628557 8.8066672,8.8066672 0 0 1 -0.98736,-0.777331 8.8066672,8.8066672 0 0 1 -0.86698,-0.909843 8.8066672,8.8066672 0 0 1 -0.72825,-1.023897 8.8066672,8.8066672 0 0 1 -0.57526,-1.116893 8.8066672,8.8066672 0 0 1 -0.41052,-1.187565 8.8066672,8.8066672 0 0 1 -0.2374,-1.233894 8.8066672,8.8066672 0 0 1 -0.0592,-1.255115 8.8066672,8.8066672 0 0 1 0.11996,-1.250558 8.8066672,8.8066672 0 0 1 0.29695,-1.221163 8.8066672,8.8066672 0 0 1 0.46745,-1.166491 8.8066672,8.8066672 0 0 1 0.62856,-1.087682 8.8066672,8.8066672 0 0 1 0.77713,-0.98759 8.8066672,8.8066672 0 0 1 0.90981,-0.866552 z" /><text
       xml:space="preserve"
       transform="matrix(0.22384539,0,0,0.22384539,55.13783,4.4602419)"
       id="text9"
       style="font-size:42.6667px;white-space:pre;shape-inside:url(#rect9);display:inline;fill:#233f94;fill-opacity:1"><tspan
         x="212.98047"
         y="391.9327"
         id="tspan3"><tspan
           style="font-family:'Changeling Neo';-inkscape-font-specification:'Changeling Neo'"
           id="tspan2">TRUFFLEYARD</tspan></tspan></text><text
       xml:space="preserve"
       transform="scale(0.26458333)"
       id="text1"
       style="font-family:'Noto Sans Tagbanwa';-inkscape-font-specification:'Noto Sans Tagbanwa';white-space:pre;shape-inside:url(#rect1);fill:#233f94" /></g><style
     type="text/css"
     id="style1">&#10;	.st0{fill:#233F94;}&#10;</style></svg>
